<svg width="45" height="43" viewBox="0 0 45 43" fill="none" xmlns="http://www.w3.org/2000/svg">
<rect x="-0.5" y="0.5" width="44" height="38.1789" rx="6.5" transform="matrix(-1 0 0 1 44 3.82031)" fill="#EBB656" stroke="black"/>
<path d="M44.5 10.8203C44.5 7.23046 41.5899 4.32031 38 4.32031H7C3.41015 4.32031 0.5 7.23046 0.5 10.8203V16.3799H44.5V10.8203Z" fill="#EBB656" stroke="black"/>
<rect x="-0.5" y="0.5" width="4" height="9.04587" rx="2" transform="matrix(-1 0 0 1 24 0.806641)" fill="#EBB656" stroke="black"/>
<rect x="-0.5" y="0.5" width="3" height="9.04587" rx="1.5" transform="matrix(-1 0 0 1 13 0.806641)" fill="#EBB656" stroke="black"/>
<rect x="-0.5" y="0.5" width="3" height="9.04587" rx="1.5" transform="matrix(-1 0 0 1 34 0.806641)" fill="#EBB656" stroke="black"/>
</svg>
