<svg width="49" height="49" viewBox="0 0 49 49" fill="none" xmlns="http://www.w3.org/2000/svg">
<path fill-rule="evenodd" clip-rule="evenodd" d="M24.5006 44.441C22.2941 46.0685 19.7324 47 17 47C8.71573 47 2 38.4374 2 27.875C2 17.3126 8.71573 8.75 17 8.75C19.7324 8.75 22.2941 9.68149 24.5006 11.309C26.707 9.68149 29.2687 8.75 32.0011 8.75C40.2854 8.75 47.0011 17.3126 47.0011 27.875C47.0011 38.4374 40.2854 47 32.0011 47C29.2687 47 26.707 46.0685 24.5006 44.441Z" fill="#46725B"/>
<path d="M24.5006 44.441L25.391 43.2339L24.5006 42.5771L23.6101 43.2339L24.5006 44.441ZM24.5006 11.309L23.6101 12.5161L24.5006 13.1729L25.391 12.5161L24.5006 11.309ZM23.6101 43.2339C21.6336 44.6918 19.3788 45.5 17 45.5V48.5C20.086 48.5 22.9546 47.4452 25.391 45.6481L23.6101 43.2339ZM17 45.5C9.86314 45.5 3.5 37.9689 3.5 27.875H0.5C0.5 38.906 7.56831 48.5 17 48.5V45.5ZM3.5 27.875C3.5 17.7811 9.86314 10.25 17 10.25V7.25C7.56831 7.25 0.5 16.844 0.5 27.875H3.5ZM17 10.25C19.3788 10.25 21.6336 11.0582 23.6101 12.5161L25.391 10.1019C22.9546 8.30478 20.086 7.25 17 7.25V10.25ZM25.391 12.5161C27.3675 11.0582 29.6223 10.25 32.0011 10.25V7.25C28.9151 7.25 26.0465 8.30478 23.6101 10.1019L25.391 12.5161ZM32.0011 10.25C39.138 10.25 45.5011 17.7811 45.5011 27.875H48.5011C48.5011 16.844 41.4328 7.25 32.0011 7.25V10.25ZM45.5011 27.875C45.5011 37.9689 39.138 45.5 32.0011 45.5V48.5C41.4328 48.5 48.5011 38.906 48.5011 27.875H45.5011ZM32.0011 45.5C29.6223 45.5 27.3675 44.6918 25.391 43.2339L23.6101 45.6481C26.0465 47.4452 28.9151 48.5 32.0011 48.5V45.5Z" fill="#46725B"/>
<path d="M24.5 11C24.7593 8.92308 26.5222 4.21538 31.5 2" stroke="#46725B" stroke-width="3"/>
</svg>
