<svg width="77" height="77" viewBox="0 0 77 77" fill="none" xmlns="http://www.w3.org/2000/svg">
<path d="M38.5 0L43.017 9.9805L50.3972 1.88432L51.609 12.7722L61.1297 7.35285L58.9177 18.0823L69.6472 15.8703L64.2278 25.391L75.1157 26.6028L67.0195 33.983L77 38.5L67.0195 43.017L75.1157 50.3972L64.2278 51.609L69.6472 61.1297L58.9177 58.9177L61.1297 69.6472L51.609 64.2278L50.3972 75.1157L43.017 67.0195L38.5 77L33.983 67.0195L26.6028 75.1157L25.391 64.2278L15.8703 69.6472L18.0823 58.9177L7.35285 61.1297L12.7722 51.609L1.88432 50.3972L9.9805 43.017L0 38.5L9.9805 33.983L1.88432 26.6028L12.7722 25.391L7.35285 15.8703L18.0823 18.0823L15.8703 7.35285L25.391 12.7722L26.6028 1.88432L33.983 9.9805L38.5 0Z" fill="#EBB656"/>
</svg>
