<svg width="197" height="197" viewBox="0 0 197 197" fill="none" xmlns="http://www.w3.org/2000/svg">
<path d="M98.5 0L110.057 25.5345L128.938 4.82093L132.039 32.6769L156.397 18.8118L150.738 46.2625L178.188 40.6032L164.323 64.9615L192.179 68.0618L171.465 86.9434L197 98.5L171.465 110.057L192.179 128.938L164.323 132.039L178.188 156.397L150.738 150.738L156.397 178.188L132.039 164.323L128.938 192.179L110.057 171.465L98.5 197L86.9434 171.465L68.0618 192.179L64.9615 164.323L40.6032 178.188L46.2625 150.738L18.8118 156.397L32.6769 132.039L4.82093 128.938L25.5345 110.057L0 98.5L25.5345 86.9434L4.82093 68.0618L32.6769 64.9615L18.8118 40.6032L46.2625 46.2625L40.6032 18.8118L64.9615 32.6769L68.0618 4.82093L86.9434 25.5345L98.5 0Z" fill="#EBB656"/>
</svg>
