<svg width="44" height="55" viewBox="0 0 44 55" fill="none" xmlns="http://www.w3.org/2000/svg">
<g filter="url(#filter0_d_1153_453)">
<path opacity="0.6" fill-rule="evenodd" clip-rule="evenodd" d="M19 0C10.7157 0 4 6.71573 4 15V18C4 21.7003 5.11654 25.1398 7.0311 28H7L17.869 43.941C19.8539 46.8521 24.1465 46.8521 26.1313 43.941L37 28H36.9689C38.8835 25.1398 40 21.7003 40 18V15C40 6.71573 33.2843 0 25 0H19Z" fill="#001F0F"/>
</g>
<path d="M8 18.8777C10.4167 16.1758 8.93981 15.4039 8 15.0179C11.2222 11.93 10.0139 10.386 8 11.158C8.53704 10.772 10.0139 10 11.625 10C13.6389 10 15.6528 13.0879 18.875 13.0879C22.0972 13.0879 24.1111 10 26.125 10C28.1389 10 30.1528 12.3159 32.1667 13.0879C33.5989 13.6369 35.5615 12.3964 36.64 11.4815C36.746 11.3733 36.8656 11.2653 37 11.158C36.8956 11.258 36.7747 11.3672 36.64 11.4815C35.2219 12.9295 36.2505 14.4193 37 15.0179C35.0667 17.1794 36.1944 18.4917 37 18.8777C35.0667 20.7305 36.1944 22.223 37 22.7376C34.1806 25.0536 31.3611 23.8956 28.9445 21.5797C26.5278 19.2637 23.3056 21.5797 21.6945 22.7376C20.0833 23.8956 18.0695 24.2816 15.6528 22.3516C13.7195 20.8077 12.1621 20.679 11.625 20.8077C10.3363 20.8077 8.67138 22.0943 8 22.7376C9.93333 20.5761 8.80555 19.2637 8 18.8777Z" fill="white"/>
<path d="M8 22.5C9.11111 21.3681 12.5 19.7833 15.5 22.5C18.5 25.2166 21.75 23.6319 23 22.5" stroke="black" stroke-linecap="round"/>
<path d="M8 18.5C9.11111 17.3681 12.5 15.7833 15.5 18.5C18.5 21.2166 21.75 19.6319 23 18.5" stroke="black" stroke-linecap="round"/>
<path d="M8 14.5C9.11111 13.3681 12.5 11.7833 15.5 14.5C18.5 17.2166 21.75 15.6319 23 14.5" stroke="black" stroke-linecap="round"/>
<path d="M8 11.5C9.11111 10.3681 12.5 8.78335 15.5 11.5C18.5 14.2166 21.75 12.6319 23 11.5" stroke="black" stroke-linecap="round"/>
<path d="M23 22.5C24.037 21.3681 27.2 19.7833 30 22.5C32.8 25.2166 35.8333 23.6319 37 22.5" stroke="black" stroke-linecap="round"/>
<path d="M23 18.5C24.037 17.3681 27.2 15.7833 30 18.5C32.8 21.2166 35.8333 19.6319 37 18.5" stroke="black" stroke-linecap="round"/>
<path d="M23 14.5C24.037 13.3681 27.2 11.7833 30 14.5C32.8 17.2166 35.8333 15.6319 37 14.5" stroke="black" stroke-linecap="round"/>
<path d="M23 11.5C24.037 10.3681 27.2 8.78335 30 11.5C32.8 14.2166 35.8333 12.6319 37 11.5" stroke="black" stroke-linecap="round"/>
<defs>
<filter id="filter0_d_1153_453" x="0" y="0" width="44" height="54.125" filterUnits="userSpaceOnUse" color-interpolation-filters="sRGB">
<feFlood flood-opacity="0" result="BackgroundImageFix"/>
<feColorMatrix in="SourceAlpha" type="matrix" values="0 0 0 0 0 0 0 0 0 0 0 0 0 0 0 0 0 0 127 0" result="hardAlpha"/>
<feOffset dy="4"/>
<feGaussianBlur stdDeviation="2"/>
<feComposite in2="hardAlpha" operator="out"/>
<feColorMatrix type="matrix" values="0 0 0 0 0 0 0 0 0 0 0 0 0 0 0 0 0 0 0.25 0"/>
<feBlend mode="normal" in2="BackgroundImageFix" result="effect1_dropShadow_1153_453"/>
<feBlend mode="normal" in="SourceGraphic" in2="effect1_dropShadow_1153_453" result="shape"/>
</filter>
</defs>
</svg>
