<svg width="44" height="55" viewBox="0 0 44 55" fill="none" xmlns="http://www.w3.org/2000/svg">
<g filter="url(#filter0_d_280_407)">
<path opacity="0.6" fill-rule="evenodd" clip-rule="evenodd" d="M19 0C10.7157 0 4 6.71573 4 15V18C4 21.7003 5.11654 25.1398 7.0311 28H7L17.869 43.941C19.8539 46.8521 24.1465 46.8521 26.1313 43.941L37 28H36.9689C38.8835 25.1398 40 21.7003 40 18V15C40 6.71573 33.2843 0 25 0H19Z" fill="#7989F2"/>
</g>
<path d="M8 18.8777C10.4167 16.1758 8.93981 15.4039 8 15.0179C11.2222 11.93 10.0139 10.386 8 11.158C8.53704 10.772 10.0139 10 11.625 10C13.6389 10 15.6528 13.0879 18.875 13.0879C22.0972 13.0879 24.1111 10 26.125 10C28.1389 10 30.1528 12.3159 32.1667 13.0879C33.5989 13.6369 35.5615 12.3964 36.64 11.4815C36.746 11.3733 36.8656 11.2653 37 11.158C36.8956 11.258 36.7747 11.3672 36.64 11.4815C35.2219 12.9295 36.2505 14.4193 37 15.0179C35.0667 17.1794 36.1944 18.4917 37 18.8777C35.0667 20.7305 36.1944 22.223 37 22.7376C34.1806 25.0536 31.3611 23.8956 28.9445 21.5797C26.5278 19.2637 23.3056 21.5797 21.6945 22.7376C20.0833 23.8956 18.0695 24.2816 15.6528 22.3516C13.7195 20.8077 12.1621 20.679 11.625 20.8077C10.3363 20.8077 8.67138 22.0943 8 22.7376C9.93333 20.5761 8.80555 19.2637 8 18.8777Z" fill="white"/>
<path fill-rule="evenodd" clip-rule="evenodd" d="M8.76531 11.3842C9.21633 10.8768 10.1727 10.233 11.3318 10.0467C12.4595 9.86547 13.799 10.1125 15.0921 11.4056C16.6181 12.9316 18.2498 13.2758 19.6703 13.0445C21.0565 12.8189 22.2036 12.0535 22.8489 11.41C22.8569 11.4022 22.8646 11.394 22.8722 11.3856C22.8726 11.3851 22.873 11.3847 22.8734 11.3842C22.8738 11.3838 22.8742 11.3833 22.8746 11.3829C23.3262 10.8757 24.2819 10.2328 25.4399 10.0467C26.5676 9.86547 27.9071 10.1125 29.2002 11.4056C30.7263 12.9316 32.3579 13.2758 33.7784 13.0445C35.1678 12.8183 36.317 12.05 36.9614 11.4056C37.1566 11.2103 37.1566 10.8937 36.9614 10.6985C36.7661 10.5032 36.4495 10.5032 36.2543 10.6985C35.723 11.2297 34.756 11.8722 33.6177 12.0575C32.5104 12.2378 31.2029 11.9941 29.9073 10.6985C28.3788 9.16998 26.7138 8.82915 25.2812 9.05939C23.8882 9.28327 22.7338 10.0425 22.1366 10.708C21.6034 11.2374 20.6411 11.8733 19.5096 12.0575C18.4023 12.2378 17.0948 11.9941 15.7992 10.6985C14.2707 9.16998 12.6057 8.82915 11.1731 9.05939C9.77177 9.28461 8.61192 10.0516 8.0179 10.7199C7.83444 10.9263 7.85303 11.2423 8.05942 11.4258C8.26582 11.6092 8.58185 11.5906 8.76531 11.3842Z" fill="black"/>
<path fill-rule="evenodd" clip-rule="evenodd" d="M8.76531 19.2124C9.21633 18.705 10.1727 18.0611 11.3318 17.8748C12.4595 17.6936 13.799 17.9406 15.0921 19.2337C16.6181 20.7598 18.2498 21.1039 19.6703 20.8726C21.0565 20.647 22.2036 19.8816 22.8489 19.2381C22.8569 19.2303 22.8646 19.2222 22.8722 19.2137C22.8726 19.2133 22.873 19.2128 22.8734 19.2124C22.8738 19.2119 22.8742 19.2114 22.8746 19.211C23.3262 18.7038 24.2819 18.061 25.4399 17.8748C26.5676 17.6936 27.9071 17.9406 29.2002 19.2337C30.7263 20.7598 32.3579 21.1039 33.7784 20.8726C35.1678 20.6465 36.317 19.8781 36.9614 19.2337C37.1566 19.0385 37.1566 18.7219 36.9614 18.5266C36.7661 18.3313 36.4495 18.3313 36.2543 18.5266C35.723 19.0579 34.756 19.7003 33.6177 19.8856C32.5104 20.0659 31.2029 19.8222 29.9073 18.5266C28.3788 16.9981 26.7138 16.6573 25.2812 16.8875C23.8882 17.1114 22.7338 17.8706 22.1366 18.5361C21.6034 19.0655 20.6411 19.7014 19.5096 19.8856C18.4023 20.0659 17.0948 19.8222 15.7992 18.5266C14.2707 16.9981 12.6057 16.6573 11.1731 16.8875C9.77177 17.1127 8.61192 17.8797 8.0179 18.548C7.83444 18.7544 7.85303 19.0704 8.05942 19.2539C8.26582 19.4373 8.58185 19.4188 8.76531 19.2124Z" fill="black"/>
<path fill-rule="evenodd" clip-rule="evenodd" d="M8.76531 15.2944C9.21633 14.787 10.1727 14.1432 11.3318 13.9569C12.4595 13.7756 13.799 14.0226 15.0921 15.3157C16.6181 16.8418 18.2498 17.1859 19.6703 16.9547C21.0565 16.729 22.2036 15.9637 22.8489 15.3201C22.8569 15.3123 22.8646 15.3042 22.8722 15.2957C22.8726 15.2953 22.873 15.2948 22.8734 15.2944C22.8738 15.2939 22.8742 15.2935 22.8746 15.293C23.3262 14.7858 24.2819 14.143 25.4399 13.9569C26.5676 13.7756 27.9071 14.0226 29.2002 15.3157C30.7263 16.8418 32.3579 17.1859 33.7784 16.9547C35.1678 16.7285 36.317 15.9602 36.9614 15.3157C37.1566 15.1205 37.1566 14.8039 36.9614 14.6086C36.7661 14.4134 36.4495 14.4134 36.2543 14.6086C35.723 15.1399 34.756 15.7824 33.6177 15.9677C32.5104 16.1479 31.2029 15.9042 29.9073 14.6086C28.3788 13.0801 26.7138 12.7393 25.2812 12.9695C23.8882 13.1934 22.7338 13.9527 22.1366 14.6181C21.6034 15.1475 20.6411 15.7835 19.5096 15.9677C18.4023 16.1479 17.0948 15.9042 15.7992 14.6086C14.2707 13.0801 12.6057 12.7393 11.1731 12.9695C9.77177 13.1948 8.61192 13.9618 8.0179 14.63C7.83444 14.8364 7.85303 15.1525 8.05942 15.3359C8.26582 15.5194 8.58185 15.5008 8.76531 15.2944Z" fill="black"/>
<path d="M8 22.5C9.11111 21.3681 12.5 19.7833 15.5 22.5C18.5 25.2166 21.75 23.6319 23 22.5" stroke="black" stroke-linecap="round"/>
<path d="M23 22.5C24.037 21.3681 27.2 19.7833 30 22.5C32.8 25.2166 35.8333 23.6319 37 22.5" stroke="black" stroke-linecap="round"/>
<defs>
<filter id="filter0_d_280_407" x="0" y="0" width="44" height="54.125" filterUnits="userSpaceOnUse" color-interpolation-filters="sRGB">
<feFlood flood-opacity="0" result="BackgroundImageFix"/>
<feColorMatrix in="SourceAlpha" type="matrix" values="0 0 0 0 0 0 0 0 0 0 0 0 0 0 0 0 0 0 127 0" result="hardAlpha"/>
<feOffset dy="4"/>
<feGaussianBlur stdDeviation="2"/>
<feComposite in2="hardAlpha" operator="out"/>
<feColorMatrix type="matrix" values="0 0 0 0 0 0 0 0 0 0 0 0 0 0 0 0 0 0 0.25 0"/>
<feBlend mode="normal" in2="BackgroundImageFix" result="effect1_dropShadow_280_407"/>
<feBlend mode="normal" in="SourceGraphic" in2="effect1_dropShadow_280_407" result="shape"/>
</filter>
</defs>
</svg>
