<svg width="35" height="44" viewBox="0 0 35 44" fill="none" xmlns="http://www.w3.org/2000/svg">
<mask id="path-1-inside-1_978_1095" fill="white">
<path fill-rule="evenodd" clip-rule="evenodd" d="M17.1505 0C26.6223 0 34.3008 7.75711 34.3008 17.229C34.3008 20.7629 33.2319 24.0581 31.3999 26.8008H31.4434L21.2884 41.7628C19.3047 44.6856 14.9979 44.6856 13.0142 41.7627L2.85956 26.8008H2.90111C1.06907 24.0581 0.000221252 20.7629 0.000221252 17.229C0.000221252 7.75711 7.67867 0 17.1505 0Z"/>
</mask>
<path fill-rule="evenodd" clip-rule="evenodd" d="M17.1505 0C26.6223 0 34.3008 7.75711 34.3008 17.229C34.3008 20.7629 33.2319 24.0581 31.3999 26.8008H31.4434L21.2884 41.7628C19.3047 44.6856 14.9979 44.6856 13.0142 41.7627L2.85956 26.8008H2.90111C1.06907 24.0581 0.000221252 20.7629 0.000221252 17.229C0.000221252 7.75711 7.67867 0 17.1505 0Z" fill="#ECEDF2"/>
<path d="M31.3999 26.8008V27.8008H29.5293L30.5683 26.2453L31.3999 26.8008ZM31.4434 26.8008V25.8008H33.3306L32.2708 27.3624L31.4434 26.8008ZM21.2884 41.7628L20.461 41.2012L21.2884 41.7628ZM13.0142 41.7627L13.8416 41.2012L13.0142 41.7627ZM2.85956 26.8008L2.03214 27.3624L0.972301 25.8008H2.85956V26.8008ZM2.90111 26.8008L3.73266 26.2453L4.77166 27.8008H2.90111V26.8008ZM33.3008 17.229C33.3008 8.30343 26.0641 1 17.1505 1V-1C27.1806 -1 35.3008 7.2108 35.3008 17.229H33.3008ZM30.5683 26.2453C32.2943 23.6614 33.3008 20.5585 33.3008 17.229H35.3008C35.3008 20.9672 34.1696 24.4547 32.2314 27.3562L30.5683 26.2453ZM31.3999 25.8008H31.4434V27.8008H31.3999V25.8008ZM32.2708 27.3624L22.1159 42.3244L20.461 41.2012L30.6159 26.2392L32.2708 27.3624ZM22.1159 42.3244C19.7354 45.8318 14.5672 45.8317 12.1868 42.3243L13.8416 41.2012C15.4286 43.5394 18.874 43.5395 20.461 41.2012L22.1159 42.3244ZM12.1868 42.3243L2.03214 27.3624L3.68699 26.2392L13.8416 41.2012L12.1868 42.3243ZM2.85956 25.8008H2.90111V27.8008H2.85956V25.8008ZM1.00022 17.229C1.00022 20.5585 2.0067 23.6614 3.73266 26.2453L2.06956 27.3562C0.131432 24.4547 -0.999779 20.9672 -0.999779 17.229H1.00022ZM17.1505 1C8.2369 1 1.00022 8.30343 1.00022 17.229H-0.999779C-0.999779 7.2108 7.12043 -1 17.1505 -1V1Z" fill="black" mask="url(#path-1-inside-1_978_1095)"/>
</svg>
