<svg width="40" height="57" viewBox="0 0 40 57" fill="none" xmlns="http://www.w3.org/2000/svg">
<path fill-rule="evenodd" clip-rule="evenodd" d="M15.5447 26.5242C10.7101 24.761 7.25654 20.1055 7.25654 14.6397C7.25654 7.65896 12.8897 2 19.8385 2C26.7873 2 32.4204 7.65896 32.4204 14.6397C32.4204 20.1052 28.9672 24.7605 24.1331 26.5239C25.0275 26.8724 25.906 27.3301 26.7607 27.8944C28.955 29.3435 30.9489 31.4674 32.6284 34.1449C34.3078 36.8224 35.6401 40.001 36.549 43.4994C37.458 46.9977 37.9258 50.7472 37.9258 54.5337L19.8393 54.5337H1.75272C1.75272 50.7472 2.22054 46.9977 3.12947 43.4994C4.03841 40.001 5.37065 36.8224 7.05014 34.1449C8.72963 31.4674 10.7235 29.3435 12.9178 27.8944C13.7722 27.3302 14.6505 26.8726 15.5447 26.5242Z" fill="#46725B"/>
<path d="M15.5447 26.5242L16.0586 25.115L19.7952 26.4777L16.0893 27.9218L15.5447 26.5242ZM24.1331 26.5239L23.5885 27.9215L19.8826 26.4777L23.619 25.1147L24.1331 26.5239ZM26.7607 27.8944L27.5872 26.6427H27.5872L26.7607 27.8944ZM32.6284 34.1449L31.3577 34.9419H31.3577L32.6284 34.1449ZM36.549 43.4994L35.0972 43.8766L36.549 43.4994ZM37.9258 54.5337H39.4258V56.0337H37.9258L37.9258 54.5337ZM19.8393 54.5337V53.0337V54.5337ZM1.75272 54.5337V56.0337H0.25272V54.5337H1.75272ZM3.12947 43.4994L1.67768 43.1222L3.12947 43.4994ZM7.05014 34.1449L8.32085 34.9419L7.05014 34.1449ZM12.9178 27.8944L12.0913 26.6427H12.0913L12.9178 27.8944ZM8.75654 14.6397C8.75654 19.4588 11.8005 23.562 16.0586 25.115L15.0308 27.9334C9.61973 25.96 5.75654 20.7522 5.75654 14.6397H8.75654ZM19.8385 3.5C13.7246 3.5 8.75654 8.48091 8.75654 14.6397H5.75654C5.75654 6.83702 12.0548 0.5 19.8385 0.5V3.5ZM30.9204 14.6397C30.9204 8.48091 25.9524 3.5 19.8385 3.5V0.5C27.6222 0.5 33.9204 6.83702 33.9204 14.6397H30.9204ZM23.619 25.1147C27.8768 23.5616 30.9204 19.4585 30.9204 14.6397H33.9204C33.9204 20.7519 30.0576 25.9594 24.6471 27.9331L23.619 25.1147ZM24.6776 25.1262C25.6767 25.5155 26.6493 26.0233 27.5872 26.6427L25.9341 29.1461C25.1628 28.6368 24.3784 28.2293 23.5885 27.9215L24.6776 25.1262ZM27.5872 26.6427C29.9928 28.2312 32.1283 30.5248 33.8991 33.3478L31.3577 34.9419C29.7694 32.4099 27.9172 30.4557 25.9341 29.1461L27.5872 26.6427ZM33.8991 33.3478C35.6708 36.1723 37.0588 39.4964 38.0008 43.1222L35.0972 43.8766C34.2214 40.5057 32.9449 37.4725 31.3577 34.9419L33.8991 33.3478ZM38.0008 43.1222C38.9433 46.7494 39.4258 50.626 39.4258 54.5337H36.4258C36.4258 50.8684 35.9727 47.246 35.0972 43.8766L38.0008 43.1222ZM37.9258 56.0337L19.8393 56.0337V53.0337L37.9258 53.0337L37.9258 56.0337ZM19.8393 56.0337H1.75272V53.0337H19.8393V56.0337ZM0.25272 54.5337C0.25272 50.626 0.735252 46.7494 1.67768 43.1222L4.58127 43.8766C3.70583 47.246 3.25272 50.8684 3.25272 54.5337H0.25272ZM1.67768 43.1222C2.61973 39.4964 4.00774 36.1723 5.77944 33.3478L8.32085 34.9419C6.73356 37.4725 5.45709 40.5057 4.58127 43.8766L1.67768 43.1222ZM5.77944 33.3478C7.55019 30.5248 9.6857 28.2312 12.0913 26.6427L13.7444 29.1461C11.7613 30.4557 9.90907 32.4099 8.32085 34.9419L5.77944 33.3478ZM12.0913 26.6427C13.029 26.0235 14.0013 25.5157 15.0001 25.1265L16.0893 27.9218C15.2997 28.2295 14.5155 28.6369 13.7444 29.1461L12.0913 26.6427Z" fill="black"/>
</svg>
