<svg width="42" height="61" viewBox="0 0 42 61" fill="none" xmlns="http://www.w3.org/2000/svg">
<mask id="path-1-inside-1_978_1102" fill="white">
<path fill-rule="evenodd" clip-rule="evenodd" d="M15.8913 28.2584C10.321 26.2265 6.34197 20.8623 6.34197 14.5645C6.34197 6.52073 12.8329 0 20.8399 0C28.8469 0 35.3379 6.52073 35.3379 14.5645C35.3379 20.8627 31.3584 26.2272 25.7875 28.2588C26.8179 28.6604 27.8298 29.1876 28.8143 29.8377C31.3428 31.5074 33.6403 33.9548 35.5756 37.04C37.5108 40.1253 39.0459 43.788 40.0933 47.8191C41.1406 51.8501 41.6797 56.1706 41.6797 60.5338L20.8389 60.5338H-0.0019455C-0.0019455 56.1706 0.537117 51.8501 1.58447 47.819C2.63182 43.788 4.16694 40.1253 6.10219 37.04C8.03744 33.9548 10.3349 31.5074 12.8634 29.8377C13.8482 29.1874 14.8606 28.66 15.8913 28.2584Z"/>
</mask>
<path fill-rule="evenodd" clip-rule="evenodd" d="M15.8913 28.2584C10.321 26.2265 6.34197 20.8623 6.34197 14.5645C6.34197 6.52073 12.8329 0 20.8399 0C28.8469 0 35.3379 6.52073 35.3379 14.5645C35.3379 20.8627 31.3584 26.2272 25.7875 28.2588C26.8179 28.6604 27.8298 29.1876 28.8143 29.8377C31.3428 31.5074 33.6403 33.9548 35.5756 37.04C37.5108 40.1253 39.0459 43.788 40.0933 47.8191C41.1406 51.8501 41.6797 56.1706 41.6797 60.5338L20.8389 60.5338H-0.0019455C-0.0019455 56.1706 0.537117 51.8501 1.58447 47.819C2.63182 43.788 4.16694 40.1253 6.10219 37.04C8.03744 33.9548 10.3349 31.5074 12.8634 29.8377C13.8482 29.1874 14.8606 28.66 15.8913 28.2584Z" fill="#EBB656"/>
<path d="M15.8913 28.2584L16.234 27.319L18.7249 28.2276L16.2543 29.1902L15.8913 28.2584ZM25.7875 28.2588L25.4244 29.1906L22.9538 28.2278L25.4449 27.3194L25.7875 28.2588ZM28.8143 29.8377L29.3654 29.0032V29.0032L28.8143 29.8377ZM35.5756 37.04L36.4227 36.5087L35.5756 37.04ZM40.0933 47.8191L39.1254 48.0705L40.0933 47.8191ZM41.6797 60.5338H42.6797V61.5338H41.6797L41.6797 60.5338ZM20.8389 60.5338V59.5338V60.5338ZM-0.0019455 60.5338V61.5338H-1.00195V60.5338H-0.0019455ZM1.58447 47.819L2.55233 48.0705V48.0705L1.58447 47.819ZM12.8634 29.8377L12.3124 29.0032L12.8634 29.8377ZM7.34197 14.5645C7.34197 20.4312 11.0479 25.4272 16.234 27.319L15.5486 29.1979C9.59403 27.0258 5.34197 21.2934 5.34197 14.5645H7.34197ZM20.8399 1C13.3895 1 7.34197 7.0687 7.34197 14.5645H5.34197C5.34197 5.97277 12.2763 -1 20.8399 -1V1ZM34.3379 14.5645C34.3379 7.0687 28.2903 1 20.8399 1V-1C29.4035 -1 36.3379 5.97277 36.3379 14.5645H34.3379ZM25.4449 27.3194C30.6314 25.4279 34.3379 20.4315 34.3379 14.5645H36.3379C36.3379 21.2939 32.0853 27.0265 26.1301 29.1983L25.4449 27.3194ZM26.1506 27.3271C27.2507 27.7558 28.3253 28.3165 29.3654 29.0032L28.2633 30.6722C27.3343 30.0588 26.3851 29.5649 25.4244 29.1906L26.1506 27.3271ZM29.3654 29.0032C32.0347 30.7659 34.4266 33.3264 36.4227 36.5087L34.7284 37.5714C32.854 34.5832 30.651 32.2489 28.2633 30.6722L29.3654 29.0032ZM36.4227 36.5087C38.4194 39.6919 39.9917 43.4515 41.0611 47.5676L39.1254 48.0705C38.1001 44.1244 36.6022 40.5587 34.7284 37.5714L36.4227 36.5087ZM41.0611 47.5676C42.1308 51.6846 42.6797 56.0898 42.6797 60.5338H40.6797C40.6797 56.2514 40.1504 52.0156 39.1254 48.0705L41.0611 47.5676ZM41.6797 61.5338L20.8389 61.5338V59.5338L41.6797 59.5338L41.6797 61.5338ZM20.8389 61.5338H-0.0019455V59.5338H20.8389V61.5338ZM-1.00195 60.5338C-1.00195 56.0898 -0.453075 51.6846 0.616604 47.5676L2.55233 48.0705C1.52731 52.0156 0.998055 56.2514 0.998055 60.5338H-1.00195ZM0.616604 47.5676C1.68603 43.4515 3.25834 39.6919 5.25505 36.5086L6.94933 37.5714C5.07554 40.5586 3.5776 44.1244 2.55233 48.0705L0.616604 47.5676ZM5.25505 36.5086C7.25114 33.3264 9.64306 30.7659 12.3124 29.0032L13.4145 30.6722C11.0268 32.2489 8.82373 34.5832 6.94933 37.5714L5.25505 36.5086ZM12.3124 29.0032C13.3527 28.3162 14.4278 27.7554 15.5282 27.3267L16.2543 29.1902C15.2933 29.5646 14.3437 30.0586 13.4145 30.6722L12.3124 29.0032Z" fill="black" mask="url(#path-1-inside-1_978_1102)"/>
</svg>
