<svg width="23" height="33" viewBox="0 0 23 33" fill="none" xmlns="http://www.w3.org/2000/svg">
<g filter="url(#filter0_d_242_369)">
<path d="M11 16V24" stroke="black" stroke-linecap="round"/>
</g>
<g filter="url(#filter1_d_242_369)">
<path fill-rule="evenodd" clip-rule="evenodd" d="M13.1705 3.90146C14.3365 3.82685 15.259 2.85728 15.2586 1.67244C15.2585 1.5274 15.1409 1.40984 14.9959 1.40984H11.1737H7.35264C7.20752 1.40984 7.08988 1.52749 7.08988 1.6726C7.08988 2.85694 8.0117 3.82598 9.17698 3.90136L8.76959 12.0493C6.77564 12.2704 5.08398 13.6751 4.52295 15.6387C4.41578 16.0138 4.69743 16.3872 5.08754 16.3872H17.2599C17.65 16.3872 17.9317 16.0138 17.8245 15.6387C17.2635 13.6751 15.5718 12.2704 13.5779 12.0493L13.1705 3.90146Z" fill="white"/>
<path d="M13.1705 3.90146L13.1386 3.40248L12.6465 3.43397L12.6711 3.92643L13.1705 3.90146ZM15.2586 1.67244L14.7586 1.67262L14.7586 1.67262L15.2586 1.67244ZM9.17698 3.90136L9.67636 3.92633L9.70097 3.43421L9.20926 3.4024L9.17698 3.90136ZM8.76959 12.0493L8.82468 12.5463L9.24771 12.4994L9.26896 12.0743L8.76959 12.0493ZM4.52295 15.6387L5.00371 15.7761L5.00371 15.7761L4.52295 15.6387ZM17.8245 15.6387L17.3438 15.7761L17.3438 15.7761L17.8245 15.6387ZM13.5779 12.0493L13.0785 12.0743L13.0998 12.4994L13.5228 12.5463L13.5779 12.0493ZM13.2024 4.40044C14.63 4.30909 15.7591 3.12262 15.7586 1.67226L14.7586 1.67262C14.7589 2.59194 14.043 3.3446 13.1386 3.40248L13.2024 4.40044ZM15.7586 1.67226C15.7584 1.25115 15.417 0.909843 14.9959 0.909843V1.90984C14.8649 1.90984 14.7586 1.80364 14.7586 1.67262L15.7586 1.67226ZM14.9959 0.909843H11.1737V1.90984H14.9959V0.909843ZM11.1737 0.909843H7.35264V1.90984H11.1737V0.909843ZM7.35264 0.909843C6.93138 0.909843 6.58988 1.25134 6.58988 1.6726H7.58988C7.58988 1.80363 7.48366 1.90984 7.35264 1.90984V0.909843ZM6.58988 1.6726C6.58988 3.12227 7.71807 4.30803 9.14471 4.40031L9.20926 3.4024C8.30532 3.34393 7.58988 2.59161 7.58988 1.6726H6.58988ZM9.26896 12.0743L9.67636 3.92633L8.67761 3.87639L8.27021 12.0243L9.26896 12.0743ZM8.71449 11.5524C6.52059 11.7956 4.65946 13.3409 4.04219 15.5014L5.00371 15.7761C5.5085 14.0093 7.0307 12.7452 8.82468 12.5463L8.71449 11.5524ZM4.04219 15.5014C3.84376 16.1959 4.36524 16.8872 5.08754 16.8872V15.8872C5.02962 15.8872 4.9878 15.8318 5.00371 15.7761L4.04219 15.5014ZM5.08754 16.8872H17.2599V15.8872H5.08754V16.8872ZM17.2599 16.8872C17.9822 16.8872 18.5037 16.1959 18.3053 15.5014L17.3438 15.7761C17.3597 15.8318 17.3179 15.8872 17.2599 15.8872V16.8872ZM18.3053 15.5014C17.688 13.3409 15.8269 11.7956 13.633 11.5524L13.5228 12.5463C15.3168 12.7452 16.839 14.0093 17.3438 15.7761L18.3053 15.5014ZM12.6711 3.92643L13.0785 12.0743L14.0773 12.0243L13.6699 3.87649L12.6711 3.92643Z" fill="black"/>
</g>
<defs>
<filter id="filter0_d_242_369" x="6.5" y="15.5" width="9" height="17" filterUnits="userSpaceOnUse" color-interpolation-filters="sRGB">
<feFlood flood-opacity="0" result="BackgroundImageFix"/>
<feColorMatrix in="SourceAlpha" type="matrix" values="0 0 0 0 0 0 0 0 0 0 0 0 0 0 0 0 0 0 127 0" result="hardAlpha"/>
<feOffset dy="4"/>
<feGaussianBlur stdDeviation="2"/>
<feComposite in2="hardAlpha" operator="out"/>
<feColorMatrix type="matrix" values="0 0 0 0 0 0 0 0 0 0 0 0 0 0 0 0 0 0 0.25 0"/>
<feBlend mode="normal" in2="BackgroundImageFix" result="effect1_dropShadow_242_369"/>
<feBlend mode="normal" in="SourceGraphic" in2="effect1_dropShadow_242_369" result="shape"/>
</filter>
<filter id="filter1_d_242_369" x="-0.000488281" y="0.909843" width="22.3481" height="23.9774" filterUnits="userSpaceOnUse" color-interpolation-filters="sRGB">
<feFlood flood-opacity="0" result="BackgroundImageFix"/>
<feColorMatrix in="SourceAlpha" type="matrix" values="0 0 0 0 0 0 0 0 0 0 0 0 0 0 0 0 0 0 127 0" result="hardAlpha"/>
<feOffset dy="4"/>
<feGaussianBlur stdDeviation="2"/>
<feComposite in2="hardAlpha" operator="out"/>
<feColorMatrix type="matrix" values="0 0 0 0 0 0 0 0 0 0 0 0 0 0 0 0 0 0 0.25 0"/>
<feBlend mode="normal" in2="BackgroundImageFix" result="effect1_dropShadow_242_369"/>
<feBlend mode="normal" in="SourceGraphic" in2="effect1_dropShadow_242_369" result="shape"/>
</filter>
</defs>
</svg>
