<svg width="38" height="38" viewBox="0 0 38 38" fill="none" xmlns="http://www.w3.org/2000/svg">
<path d="M28.6819 9.5135C26.9762 8.40132 25.745 6.62183 25.361 4.54742C25.278 4.09922 25.2324 3.63796 25.2324 3.16602H19.7883L19.7795 24.9843C19.688 27.4275 17.6771 29.3885 15.2119 29.3885C14.4457 29.3885 13.7243 29.197 13.0891 28.8627C11.6324 28.0962 10.6356 26.5693 10.6356 24.8122C10.6356 22.2887 12.6886 20.2357 15.2119 20.2357C15.6829 20.2357 16.1348 20.3134 16.5622 20.4473V14.8894C16.1199 14.8292 15.6705 14.7915 15.2119 14.7915C9.68649 14.7915 5.19141 19.2868 5.19141 24.8122C5.19141 28.2023 6.88518 31.2024 9.46923 33.0166C11.0969 34.1592 13.0767 34.8327 15.2119 34.8327C20.7373 34.8327 25.2324 30.3377 25.2324 24.8122V13.7485C27.3677 15.2811 29.9837 16.1842 32.8066 16.1842V10.74C31.286 10.74 29.8697 10.288 28.6819 9.5135Z" fill="white"/>
</svg>
